<svg width="26" height="26" viewBox="0 0 26 26" fill="none" xmlns="http://www.w3.org/2000/svg">
<path fill-rule="evenodd" clip-rule="evenodd" d="M5.68747 13.0001C5.68747 12.7846 5.77307 12.578 5.92545 12.4256C6.07782 12.2732 6.28448 12.1876 6.49997 12.1876L21.125 12.1876C21.3405 12.1876 21.5471 12.2732 21.6995 12.4256C21.8519 12.578 21.9375 12.7846 21.9375 13.0001C21.9375 13.2156 21.8519 13.4223 21.6995 13.5746C21.5471 13.727 21.3405 13.8126 21.125 13.8126L6.49997 13.8126C6.28448 13.8126 6.07782 13.727 5.92545 13.5746C5.77307 13.4223 5.68747 13.2156 5.68747 13.0001Z" fill="white"/>
<path fill-rule="evenodd" clip-rule="evenodd" d="M4.29971 13.5753C4.22404 13.4998 4.16401 13.4102 4.12305 13.3115C4.08209 13.2128 4.061 13.1069 4.061 13.0001C4.061 12.8932 4.08209 12.7874 4.12305 12.6887C4.16401 12.59 4.22404 12.5003 4.29971 12.4248L9.17471 7.54982C9.32727 7.39726 9.5342 7.31155 9.74996 7.31155C9.96572 7.31155 10.1726 7.39726 10.3252 7.54982C10.4778 7.70239 10.5635 7.90931 10.5635 8.12507C10.5635 8.34083 10.4778 8.54776 10.3252 8.70032L6.02383 13.0001L10.3252 17.2998C10.4778 17.4524 10.5635 17.6593 10.5635 17.8751C10.5635 18.0908 10.4778 18.2978 10.3252 18.4503C10.1726 18.6029 9.96572 18.6886 9.74996 18.6886C9.5342 18.6886 9.32727 18.6029 9.17471 18.4503L4.29971 13.5753Z" fill="white"/>
</svg>
