<svg width="50" height="50" viewBox="0 0 50 50" fill="none" xmlns="http://www.w3.org/2000/svg">
<path fill-rule="evenodd" clip-rule="evenodd" d="M10.2 21.6002C10.2 23.7002 10.1 41.6002 10.3 42.3002C10.7 44.1002 13.3 43.5002 15.9 43.5002C18.2 43.5002 38.1 43.7002 38.8 43.4002C39.1 43.4002 39.3 43.2002 39.5 43.0002C39.7 42.9002 39.9 42.5002 39.9 42.3002C40.1 41.6002 40 23.7002 40 21.6002C40 19.9002 40 19.3002 40 18.9002C40 18.5002 40 18.4002 39.6 18.1002C39.4 17.8002 38.7 17.6002 38.2 17.8002C37.7 18.1002 37.6 18.5002 37.6 19.1002C37.5 21.7002 37.6 24.3002 37.6 26.9002V31.1002V41.1002H12.6C12.6 36.2002 12.6 31.2002 12.6 26.2002V18.8002C12.5 17.6002 11 17.4002 10.5 18.2002C10.4 18.3002 10.3 18.5002 10.3 18.7002C10.1 19.6002 10.3 20.9002 10.2 21.6002Z" fill="#E85253"/>
<path fill-rule="evenodd" clip-rule="evenodd" d="M8.39999 19.7C9.09999 18.3 8.29999 18.1 6.29999 16.1C5.99999 15.7 5.49999 15.4 5.29999 14.9C6.49999 13.9 8.69999 11.3 10.1 10.1C12.4 8.10005 14.3 8.30005 18 8.30005C18.3 8.50005 18.3 9.10005 18.5 9.50005C19.4 12.2 22 14.2 25.1 14.2C27.1 14.2 28.8 13.3 29.8 12.4C30 12.3 30 12.2 30.2 12C30.8 11.4 31.4 10.4 31.7 9.60005C31.9 9.20005 31.9 8.50005 32.2 8.30005C35.9 8.30005 37.8 8.10005 40.1 10.1C40.9 10.8 41.7 11.7 42.5 12.5C43 13 44.8 14.6 44.9 15.1L41.8 18.2C41.3 18.7 41.5 19.2 41.8 19.7C43 20.7 43.8 19.4 45.3 17.9C45.8 17.4 46.3 16.9 46.8 16.3C47.3 15.9 48.2 15.3 47.6 14.4C47.4 14 42.1 8.60005 41.5 8.20005C38.2 5.50005 35.9 5.90005 31.5 5.90005C29 5.90005 30.3 7.30005 29.1 9.60005C27.5 12.4 22.9 12.6 21.2 9.70005C20.6 8.80005 20.6 8.50005 20.4 7.30005C20.3 6.20005 19.9 5.90005 18.7 5.90005C14.9 5.90005 11.7 5.50005 8.69999 8.20005C7.99999 8.80005 2.69999 14.1 2.59999 14.4C1.99999 15.5 3.49999 16.6 4.79999 17.9C6.19999 19.3 7.09999 20.7 8.39999 19.7Z" fill="#E85253"/>
</svg>
