<svg width="50" height="50" viewBox="0 0 50 50" fill="none" xmlns="http://www.w3.org/2000/svg">
<path fill-rule="evenodd" clip-rule="evenodd" d="M8.33336 31C8.68698 31 9.02612 31.1405 9.27617 31.3905C9.52622 31.6406 9.66669 31.9797 9.66669 32.3333V40.3333H17.6667C18.0203 40.3333 18.3595 40.4738 18.6095 40.7239C18.8596 40.9739 19 41.313 19 41.6667C19 42.0203 18.8596 42.3594 18.6095 42.6095C18.3595 42.8595 18.0203 43 17.6667 43H8.33336C7.97974 43 7.6406 42.8595 7.39055 42.6095C7.1405 42.3594 7.00003 42.0203 7.00003 41.6667V32.3333C7.00003 31.9797 7.1405 31.6406 7.39055 31.3905C7.6406 31.1405 7.97974 31 8.33336 31Z" fill="#E85253"/>
<path fill-rule="evenodd" clip-rule="evenodd" d="M20.2131 29.7856C20.4608 30.0334 20.6 30.3694 20.6 30.7198C20.6 31.0702 20.4608 31.4062 20.2131 31.654L9.25633 42.6134C9.00821 42.8612 8.67183 43.0002 8.32119 43C7.97055 42.9998 7.63437 42.8602 7.3866 42.6121C7.13883 42.364 6.99978 42.0276 7.00003 41.677C7.00027 41.3263 7.1398 40.9901 7.38792 40.7424L18.3447 29.7856C18.5925 29.5379 18.9285 29.3987 19.2789 29.3987C19.6293 29.3987 19.9653 29.5379 20.2131 29.7856ZM43.6118 6.38688C43.7349 6.50962 43.8325 6.65544 43.8991 6.81597C43.9657 6.9765 44 7.1486 44 7.3224C44 7.49621 43.9657 7.66831 43.8991 7.82884C43.8325 7.98937 43.7349 8.13519 43.6118 8.25793L32.6551 19.2147C32.4073 19.4628 32.0711 19.6023 31.7205 19.6026C31.3698 19.6028 31.0335 19.4638 30.7853 19.216C30.5372 18.9682 30.3977 18.6321 30.3974 18.2814C30.3972 17.9308 30.5362 17.5944 30.784 17.3463L41.7434 6.38688C41.9912 6.13916 42.3272 6 42.6776 6C43.028 6 43.364 6.13916 43.6118 6.38688Z" fill="#E85253"/>
<path fill-rule="evenodd" clip-rule="evenodd" d="M32 7.32143C32 6.97096 32.1405 6.63485 32.3905 6.38704C32.6406 6.13922 32.9797 6 33.3334 6H42.6667C43.0203 6 43.3595 6.13922 43.6095 6.38704C43.8596 6.63485 44 6.97096 44 7.32143V16.5714C44 16.9219 43.8596 17.258 43.6095 17.5058C43.3595 17.7536 43.0203 17.8929 42.6667 17.8929C42.3131 17.8929 41.9739 17.7536 41.7239 17.5058C41.4738 17.258 41.3334 16.9219 41.3334 16.5714V8.64286H33.3334C32.9797 8.64286 32.6406 8.50364 32.3905 8.25582C32.1405 8.008 32 7.67189 32 7.32143ZM42.6667 31.1071C42.3131 31.1071 41.9739 31.2464 41.7239 31.4942C41.4738 31.742 41.3334 32.0781 41.3334 32.4286V40.3571H33.3334C32.9797 40.3571 32.6406 40.4964 32.3905 40.7442C32.1405 40.992 32 41.3281 32 41.6786C32 42.029 32.1405 42.3651 32.3905 42.613C32.6406 42.8608 32.9797 43 33.3334 43H42.6667C43.0203 43 43.3595 42.8608 43.6095 42.613C43.8596 42.3651 44 42.029 44 41.6786V32.4286C44 32.0781 43.8596 31.742 43.6095 31.4942C43.3595 31.2464 43.0203 31.1071 42.6667 31.1071Z" fill="#E85253"/>
<path fill-rule="evenodd" clip-rule="evenodd" d="M30.752 29.7507C30.6287 29.8738 30.5308 30.0199 30.464 30.1809C30.3972 30.3418 30.3629 30.5144 30.3629 30.6886C30.3629 30.8628 30.3972 31.0354 30.464 31.1963C30.5308 31.3573 30.6287 31.5035 30.752 31.6265L41.7367 42.6111C41.9851 42.8599 42.3221 42.9998 42.6736 43C42.8477 43.0001 43.0201 42.966 43.1809 42.8995C43.3418 42.833 43.488 42.7354 43.6111 42.6124C43.7343 42.4894 43.832 42.3434 43.8988 42.1826C43.9655 42.0219 43.9999 41.8495 44 41.6755C44.0001 41.5014 43.966 41.329 43.8995 41.1682C43.833 41.0073 43.7355 40.8611 43.6125 40.738L32.6252 29.7507C32.3768 29.5023 32.0399 29.3628 31.6886 29.3628C31.3374 29.3628 31.0005 29.5023 30.752 29.7507ZM7.38921 6.38786C7.26585 6.51092 7.16797 6.6571 7.10119 6.81804C7.0344 6.97898 7.00003 7.15152 7.00003 7.32577C7.00003 7.50001 7.0344 7.67255 7.10119 7.83349C7.16797 7.99443 7.26585 8.14062 7.38921 8.26367L18.3738 19.2483C18.6222 19.497 18.9593 19.6369 19.3108 19.6372C19.6623 19.6374 19.9996 19.498 20.2483 19.2496C20.4971 19.0012 20.6369 18.6642 20.6372 18.3126C20.6374 17.9611 20.498 17.6239 20.2496 17.3751L9.26237 6.38786C9.01395 6.13951 8.67706 6 8.32579 6C7.97452 6 7.63764 6.13951 7.38921 6.38786Z" fill="#E85253"/>
<path fill-rule="evenodd" clip-rule="evenodd" d="M19 7.33333C19 6.97971 18.8596 6.64057 18.6095 6.39052C18.3595 6.14048 18.0203 6 17.6667 6H8.33336C7.97974 6 7.6406 6.14048 7.39055 6.39052C7.1405 6.64057 7.00003 6.97971 7.00003 7.33333V16.6667C7.00003 17.0203 7.1405 17.3594 7.39055 17.6095C7.6406 17.8595 7.97974 18 8.33336 18C8.68698 18 9.02612 17.8595 9.27617 17.6095C9.52622 17.3594 9.66669 17.0203 9.66669 16.6667V8.66667H17.6667C18.0203 8.66667 18.3595 8.52619 18.6095 8.27614C18.8596 8.02609 19 7.68696 19 7.33333Z" fill="#E85253"/>
</svg>
