<svg width="50" height="50" viewBox="0 0 50 50" fill="none" xmlns="http://www.w3.org/2000/svg">
<path fill-rule="evenodd" clip-rule="evenodd" d="M30.7 14C30.7 14.5 31.2 15.2 31.9 15.2H35.1C36.5 15.2 36.8 12.8 35 12.8C33.8 12.8 31.7 12.6 31.1 13.1C31 13.3 30.7 13.7 30.7 14Z" fill="#E85253"/>
<path fill-rule="evenodd" clip-rule="evenodd" d="M22.7 13.5C23.4 12.6 23.8 12.6 22.6 11.2C22.3 10.7 21.2 9.70005 21 9.20005C23.1 8.00005 27.4 7.90005 29.5 9.30005C28.6 10.5 27.7 11.6 26.9 12.8C25.8 14.3 26.4 16.3 27.5 17.1C28.2 17.7 28.8 17.7 29.7 18.1C30.4 18.4 31.1 18.7 31.6 19.1C32.9 19.8 33.9 20.8 34.8 21.9C37 24.7 37.3 27.2 37.3 31.5C37.3 33.5 37.3 35.6 37.3 37.6C37.3 38.5 37.1 39.7001 37.6 40.3C37.7 40.3 39.9 42.1 38.2 42.2001C37.9 42.2001 37.6 42.2001 37.3 42.2001C33.7 42.2001 12.3 42.3 11.5 42.1C11.1 40.8 13 41 13 39.1C13 37.6 13 36 13 34.5C13 29.3 12.5 25.4 15.9 21.4C19.3 17.4 22.3 18.6 22.1 16.3C21.4 14 16.4 17.7 15.8 18.2C12.7 20.8 11.2 23.9 10.7 27.9C10.5 28.9 10.6 35.9 10.6 37.6C10.6 39 10.8 38.8 9.99997 39.5C9.59997 39.9001 9.19997 40.4001 9.09997 41.1C8.69997 42.6 9.59997 43.9001 10.6 44.3C11.7 44.8 13.6 44.6 15.2 44.6C21.8 44.6 28.4 44.6 35 44.6C36.5 44.6 38.6 44.8 39.6 44.3C41.1 43.6 42.1 41.4001 40.3 39.6C39.5 38.8 39.7 39.2001 39.7 37.7C39.7 33.3 40.1 27.4 38.7 24C37.1 20 33.8 16.9 29.8 15.6C29.5 15.5 29.2 15.4 29 15.2C28.1 14.6 29.1 13.7 29.6 13L31.7 10.2C32.1 9.70005 32.7 9.20005 32.3 8.40005C32.1 7.70005 30.1 6.80005 29.3 6.50005C26.6 5.60005 23.7 5.50005 20.9 6.60005C20.2 6.90005 18 7.70005 17.9 8.60005C17.8 9.60005 18.3 9.70005 18.7 10.2L20.4 12.2C21.3 13.2 21.6 14 22.7 13.5Z" fill="#E85253"/>
<path d="M21.9 34V25.6C21.9 25.2 22.1 24.9 22.3 24.7C22.5 24.5 22.8 24.3 23.2 24.3H26.2C27.2 24.3 28 24.7 28.7 25.3C29.5 25.9 29.8 26.9 29.8 28C29.8 29.1 29.5 30 28.9 30.7C28.3 31.3 27.4 31.7 26.2 31.7H24.4V34C24.4 34.4 24.3 34.7 24 34.9C23.8 35.2 23.5 35.3 23.2 35.3C22.8 35.3 22.5 35.2 22.3 34.9C22.1 34.7 21.9 34.4 21.9 34ZM24.4 29.5H25.7C26.2 29.5 26.6 29.4 26.9 29.1C27.2 28.8 27.3 28.4 27.3 28C27.3 27.6 27.2 27.2 26.9 26.9C26.6 26.7 26.2 26.5 25.7 26.5H24.4V29.5Z" fill="#E85253"/>
<path fill-rule="evenodd" clip-rule="evenodd" d="M21.4 32.3H25.9C26.2 32.3 26.5 32.6 26.5 33C26.5 33.3 26.2 33.6 25.9 33.6H21.4C21.1 33.6 20.8 33.3 20.8 33C20.8 32.6 21.1 32.3 21.4 32.3Z" fill="#E85253"/>
</svg>
