<svg width="40" height="40" viewBox="0 0 40 40" fill="none" xmlns="http://www.w3.org/2000/svg">
<path d="M20.0002 11.9883C15.5666 11.9883 11.9884 15.5665 11.9884 20.0001C11.9884 24.4337 15.5666 28.0118 20.0002 28.0118C24.4338 28.0118 28.0119 24.4337 28.0119 20.0001C28.0119 15.5665 24.4338 11.9883 20.0002 11.9883ZM20.0002 25.2071C17.133 25.2071 14.7931 22.8672 14.7931 20.0001C14.7931 17.1329 17.133 14.793 20.0002 14.793C22.8673 14.793 25.2072 17.1329 25.2072 20.0001C25.2072 22.8672 22.8673 25.2071 20.0002 25.2071ZM28.34 9.79303C27.3048 9.79303 26.4689 10.629 26.4689 11.6641C26.4689 12.6993 27.3048 13.5352 28.34 13.5352C29.3752 13.5352 30.2111 12.7032 30.2111 11.6641C30.2114 11.4183 30.1632 11.1749 30.0693 10.9477C29.9754 10.7206 29.8376 10.5142 29.6638 10.3404C29.4899 10.1666 29.2836 10.0288 29.0564 9.93483C28.8293 9.84091 28.5858 9.79272 28.34 9.79303ZM35.6173 20.0001C35.6173 17.8438 35.6369 15.7071 35.5158 13.5547C35.3947 11.0547 34.8244 8.836 32.9963 7.00788C31.1642 5.17584 28.9494 4.60944 26.4494 4.48834C24.2931 4.36725 22.1564 4.38678 20.0041 4.38678C17.8478 4.38678 15.7111 4.36725 13.5588 4.48834C11.0587 4.60944 8.84 5.17975 7.01187 7.00788C5.17984 8.83991 4.61344 11.0547 4.49234 13.5547C4.37125 15.711 4.39078 17.8477 4.39078 20.0001C4.39078 22.1524 4.37125 24.293 4.49234 26.4454C4.61344 28.9454 5.18375 31.1641 7.01187 32.9922C8.84391 34.8243 11.0587 35.3907 13.5588 35.5118C15.715 35.6329 17.8517 35.6133 20.0041 35.6133C22.1603 35.6133 24.297 35.6329 26.4494 35.5118C28.9494 35.3907 31.1681 34.8204 32.9963 32.9922C34.8283 31.1602 35.3947 28.9454 35.5158 26.4454C35.6408 24.293 35.6173 22.1563 35.6173 20.0001ZM32.1798 29.211C31.8947 29.9219 31.5509 30.4532 31.0002 31.0001C30.4494 31.5508 29.922 31.8946 29.2111 32.1797C27.1564 32.9962 22.2775 32.8126 20.0002 32.8126C17.7228 32.8126 12.84 32.9962 10.7853 32.1837C10.0744 31.8985 9.54312 31.5547 8.99625 31.004C8.44547 30.4532 8.10172 29.9258 7.81656 29.2149C7.00406 27.1563 7.18766 22.2774 7.18766 20.0001C7.18766 17.7227 7.00406 12.8399 7.81656 10.7852C8.10172 10.0743 8.44547 9.54303 8.99625 8.99616C9.54703 8.44928 10.0744 8.10163 10.7853 7.81647C12.84 7.00397 17.7228 7.18756 20.0002 7.18756C22.2775 7.18756 27.1603 7.00397 29.215 7.81647C29.9259 8.10163 30.4572 8.44538 31.0041 8.99616C31.5548 9.54694 31.8986 10.0743 32.1838 10.7852C32.9963 12.8399 32.8127 17.7227 32.8127 20.0001C32.8127 22.2774 32.9963 27.1563 32.1798 29.211Z" fill="#EC56B9"/>
</svg>
