<svg width="40" height="40" viewBox="0 0 40 40" fill="none" xmlns="http://www.w3.org/2000/svg">
<path d="M20.0002 11.9883C15.5666 11.9883 11.9884 15.5664 11.9884 20C11.9884 24.4336 15.5666 28.0117 20.0002 28.0117C24.4338 28.0117 28.0119 24.4336 28.0119 20C28.0119 15.5664 24.4338 11.9883 20.0002 11.9883ZM20.0002 25.2071C17.133 25.2071 14.7931 22.8672 14.7931 20C14.7931 17.1328 17.133 14.793 20.0002 14.793C22.8673 14.793 25.2072 17.1328 25.2072 20C25.2072 22.8672 22.8673 25.2071 20.0002 25.2071ZM28.34 9.793C27.3048 9.793 26.4689 10.6289 26.4689 11.6641C26.4689 12.6993 27.3048 13.5352 28.34 13.5352C29.3752 13.5352 30.2111 12.7032 30.2111 11.6641C30.2114 11.4183 30.1632 11.1748 30.0693 10.9477C29.9754 10.7205 29.8376 10.5142 29.6638 10.3403C29.4899 10.1665 29.2836 10.0287 29.0564 9.9348C28.8293 9.84088 28.5858 9.79269 28.34 9.793ZM35.6173 20C35.6173 17.8438 35.6369 15.7071 35.5158 13.5547C35.3947 11.0547 34.8244 8.83597 32.9963 7.00784C31.1642 5.17581 28.9494 4.60941 26.4494 4.48831C24.2931 4.36722 22.1564 4.38675 20.0041 4.38675C17.8478 4.38675 15.7111 4.36722 13.5588 4.48831C11.0587 4.60941 8.84 5.17972 7.01187 7.00784C5.17984 8.83988 4.61344 11.0547 4.49234 13.5547C4.37125 15.711 4.39078 17.8477 4.39078 20C4.39078 22.1524 4.37125 24.293 4.49234 26.4453C4.61344 28.9453 5.18375 31.1641 7.01187 32.9922C8.84391 34.8242 11.0587 35.3907 13.5588 35.5117C15.715 35.6328 17.8517 35.6133 20.0041 35.6133C22.1603 35.6133 24.297 35.6328 26.4494 35.5117C28.9494 35.3907 31.1681 34.8203 32.9963 32.9922C34.8283 31.1602 35.3947 28.9453 35.5158 26.4453C35.6408 24.293 35.6173 22.1563 35.6173 20ZM32.1798 29.211C31.8947 29.9219 31.5509 30.4532 31.0002 31C30.4494 31.5508 29.922 31.8946 29.2111 32.1797C27.1564 32.9961 22.2775 32.8125 20.0002 32.8125C17.7228 32.8125 12.84 32.9961 10.7853 32.1836C10.0744 31.8985 9.54312 31.5547 8.99625 31.0039C8.44547 30.4532 8.10172 29.9258 7.81656 29.2149C7.00406 27.1563 7.18766 22.2774 7.18766 20C7.18766 17.7227 7.00406 12.8399 7.81656 10.7852C8.10172 10.0743 8.44547 9.543 8.99625 8.99613C9.54703 8.44925 10.0744 8.1016 10.7853 7.81644C12.84 7.00394 17.7228 7.18753 20.0002 7.18753C22.2775 7.18753 27.1603 7.00394 29.215 7.81644C29.9259 8.1016 30.4572 8.44534 31.0041 8.99613C31.5548 9.54691 31.8986 10.0743 32.1838 10.7852C32.9963 12.8399 32.8127 17.7227 32.8127 20C32.8127 22.2774 32.9963 27.1563 32.1798 29.211Z" fill="#C6AB98"/>
</svg>
