<svg width="150" height="40" viewBox="0 0 150 40" fill="none" xmlns="http://www.w3.org/2000/svg">
<path d="M19.9527 3.13076e-05C8.94896 0.0194158 -0.0812787 9.0429 0.000551804 20.0242C-0.0475838 30.7342 8.59275 40.0242 20.049 40C31.3946 39.9757 40.0012 30.7923 40.0157 20.0145C40.0301 8.96536 30.9902 -0.0193532 19.9527 3.13076e-05ZM26.4751 3.26632C26.8795 3.42624 27.4186 3.50378 27.6015 3.84301C27.7844 4.18708 27.486 4.66685 27.3801 5.08362C26.7543 7.62299 26.1141 10.1575 25.4787 12.6969C25.4643 12.7453 25.4354 12.7938 25.4161 12.8423C24.9492 10.8214 24.4823 8.80059 24.025 6.77976C23.6833 5.28715 23.3559 3.79455 23.0238 2.29709C24.2272 2.43763 25.3584 2.82532 26.4751 3.26632ZM13.6566 3.18394C14.8215 2.74294 16.0008 2.37463 17.2379 2.2341C16.434 5.51008 15.6302 8.7909 14.8263 12.0717C14.8071 12.1347 14.7734 12.1977 14.7493 12.2607C14.1332 9.70682 13.517 7.15776 12.9057 4.60385C12.6554 3.55709 12.6602 3.56193 13.6566 3.18394ZM9.63729 33.637C9.59878 33.8211 9.57953 34.0198 9.3918 34.1313C7.56265 32.755 6.07526 31.0685 4.90557 29.0962C3.39892 26.552 2.56136 23.8042 2.42177 20.8384C2.19072 16.1231 3.57221 11.9506 6.56143 8.31598C7.5097 7.15776 8.59757 6.14007 9.88279 5.229C10.0464 5.95592 10.2053 6.62953 10.3593 7.30799C11.2402 11.2285 12.1211 15.1442 13.0068 19.0598C13.0357 19.1955 13.079 19.3215 12.9923 19.4475C13.1223 19.6801 13.0068 19.9031 12.9538 20.1211C12.0441 23.8478 11.1343 27.5745 10.2053 31.2963C10.0079 32.0765 9.82021 32.8568 9.63729 33.637ZM16.7565 37.4557C15.2162 37.1456 13.7288 36.6852 12.3281 35.9534C13.0886 32.9004 13.8492 29.8425 14.6097 26.7894C14.6241 26.7264 14.6626 26.6683 14.6867 26.6053C14.9803 27.8556 15.2788 29.1059 15.5676 30.361C16.0778 32.6048 16.5688 34.8534 17.0887 37.0971C17.1657 37.446 17.1561 37.5333 16.7565 37.4557ZM20.0009 34.2912C19.7987 33.4528 19.5965 32.6193 19.3944 31.7809C18.8504 29.5032 18.3065 27.2207 17.7626 24.9333C17.3245 23.0773 16.8913 21.2115 16.4533 19.3506C16.4292 19.0938 16.4677 18.8418 16.5303 18.5898C17.4353 14.9746 18.3113 11.3545 19.2355 7.74899C19.4136 7.03661 19.5821 6.31938 19.765 5.61184C19.7843 5.51977 19.8035 5.42285 19.842 5.33562C19.8757 5.24838 19.9191 5.14662 20.025 5.14177C20.1645 5.13208 20.1982 5.25323 20.2271 5.35985C20.3475 5.84446 20.4774 6.33392 20.5881 6.82338C21.0358 8.77152 21.5172 10.71 21.9841 12.6533C22.5087 14.8486 23.0238 17.0439 23.5725 19.2343C23.6255 19.4427 23.6014 19.6656 23.6833 19.8691C22.6291 24.0804 21.5797 28.2917 20.5256 32.503C20.3812 33.0991 20.2271 33.6951 20.0009 34.2912ZM23.0094 37.4848C22.6339 37.5623 22.7591 37.3443 22.8024 37.1747C23.3222 35.0666 23.8421 32.9585 24.3668 30.8505C24.6556 29.6777 24.9444 28.5049 25.2332 27.3322C25.2525 27.2546 25.291 27.1819 25.3199 27.1093C25.7483 28.8684 26.1767 30.6275 26.6099 32.3867C26.9035 33.5934 27.202 34.8001 27.5004 36.0116C26.0756 36.7288 24.569 37.1795 23.0094 37.4848ZM30.6485 34.0634C30.5329 34.1555 30.403 34.2282 30.2778 34.3154C30.0853 34.1846 30.0757 33.9665 30.0323 33.7727C29.0552 29.4402 28.0636 25.1078 27.0864 20.7705C27.0479 20.6009 26.9757 20.4264 27.0913 20.2617C26.9565 20.0727 27.0768 19.8837 27.1201 19.7141C27.8229 16.8549 28.5353 13.9956 29.2429 11.1364C29.6665 9.42574 30.0853 7.71506 30.5089 5.99953C30.5329 5.89777 30.5715 5.80084 30.6148 5.66031C31.6016 6.39692 32.4536 7.2353 33.2237 8.14152C35.3465 10.6276 36.7087 13.4916 37.2671 16.7289C37.9025 20.4313 37.45 24.0029 35.8904 27.4243C34.687 30.0702 32.9157 32.2655 30.6485 34.0634Z" fill="white"/>
<path d="M86.8275 11.9408C86.6109 12.1492 86.6686 12.3624 86.6686 12.5563C86.6638 17.95 86.6686 23.3389 86.6638 28.7278C86.6638 29.2463 86.7023 29.7649 86.505 30.2592C86.2498 30.894 85.677 31.2333 84.9791 31.1412C84.4255 31.0685 84.05 30.6033 83.9634 29.9345C83.9056 29.4887 83.9008 29.0428 83.9008 28.5921C83.9008 22.1419 83.9008 15.6917 83.9008 9.2367C83.9008 8.56309 83.9971 7.90886 84.233 7.27886C84.4592 6.67794 84.8395 6.25633 85.523 6.20302C87.1066 6.08187 87.4147 6.31933 87.9298 7.55509C88.6277 9.2367 89.1428 10.9861 89.7348 12.7065C91.1356 16.7918 92.5267 20.8771 93.9275 24.9624C93.9756 25.1029 94.0237 25.2435 94.0863 25.3791C94.1441 25.5051 94.12 25.7329 94.3125 25.7135C94.4762 25.6941 94.481 25.4858 94.5292 25.3501C95.694 21.8996 96.8493 18.4492 98.019 15.0036C98.8132 12.6678 99.6315 10.3319 100.44 8.00094C100.508 7.80709 100.599 7.62294 100.676 7.43879C101.177 6.25148 102.457 5.77656 103.583 6.38718C104.296 6.77002 104.464 7.4824 104.575 8.20447C104.657 8.72785 104.652 9.26093 104.652 9.794C104.647 16.123 104.647 22.4521 104.652 28.7811C104.652 29.1785 104.628 29.571 104.58 29.9587C104.455 30.9716 103.391 31.4853 102.529 30.9619C101.985 30.6275 102.014 30.0411 101.918 29.5177C101.875 29.3093 101.899 29.0864 101.899 28.8683C101.899 23.3825 101.899 17.8967 101.894 12.4109C101.894 12.2607 101.985 12.0135 101.812 11.9748C101.605 11.9311 101.624 12.2025 101.581 12.3382C100.378 15.9292 99.1935 19.525 97.9949 23.116C97.2488 25.3452 96.4931 27.5696 95.7374 29.794C95.6266 30.1235 95.4919 30.453 95.2416 30.7196C94.7265 31.2623 93.9756 31.2817 93.4365 30.7632C92.9936 30.3367 92.7674 29.7794 92.5797 29.2124C91.4052 25.6651 90.2403 22.1177 89.0706 18.5752C88.3822 16.501 87.6843 14.4317 86.9863 12.3576C86.943 12.2316 86.8949 12.1105 86.8275 11.9408Z" fill="white"/>
<path d="M65.056 18.8564C65.0608 15.5223 65.056 12.1881 65.0608 8.85399C65.0608 8.44691 65.0512 8.03984 65.1378 7.63761C65.263 7.04638 65.4122 6.86223 65.9898 6.76046C66.2642 6.712 66.553 6.70715 66.837 6.70715C70.6493 6.68777 74.4617 6.67323 78.2692 6.65869C78.4714 6.65869 78.6735 6.68777 78.8757 6.71684C79.4148 6.79438 79.6988 7.09969 79.7999 7.69576C79.8769 8.17553 79.6651 8.63106 79.2319 8.85883C78.765 9.10114 78.2547 9.15929 77.7397 9.15929C74.7794 9.16414 71.819 9.15929 68.8539 9.16414C68.6806 9.16414 68.5025 9.15445 68.3292 9.17383C68.0163 9.20775 67.8334 9.37252 67.8334 9.70206C67.8334 11.9507 67.8238 14.1944 67.8334 16.443C67.8382 16.947 68.0548 17.0972 68.6517 17.0972C71.2992 17.0924 73.9514 17.0924 76.5989 17.0924C77.0321 17.0924 77.4605 17.0827 77.8841 17.2087C78.6109 17.4219 78.919 17.8339 78.8661 18.5414C78.8276 19.1035 78.3847 19.5252 77.7204 19.6172C77.3883 19.6608 77.0465 19.6851 76.7144 19.6851C74.0092 19.6948 71.304 19.6899 68.5987 19.6948C67.9345 19.6996 67.8286 19.8111 67.8286 20.4895C67.8238 22.6509 67.8238 24.8171 67.8286 26.9833C67.8334 27.9186 68.1222 28.1997 69.0416 28.1997C72.1126 28.1997 75.1789 28.1997 78.2499 28.2046C78.5436 28.2046 78.842 28.1997 79.1356 28.2676C79.7518 28.4033 79.9732 28.6116 80.0598 29.1835C80.1417 29.7262 79.901 30.2593 79.4581 30.5065C79.1693 30.6712 78.8516 30.7391 78.5243 30.7391C74.5627 30.7342 70.6012 30.7342 66.6396 30.7294C66.5722 30.7294 66.5048 30.7294 66.4375 30.7245C65.3496 30.6761 65.0608 30.3659 65.056 29.2707C65.056 25.8009 65.056 22.3311 65.056 18.8564Z" fill="white"/>
<path d="M134.934 18.9144C134.934 15.5269 134.934 12.1395 134.939 8.74718C134.939 8.36918 134.968 7.98634 135.011 7.60834C135.069 7.11404 135.276 6.9105 135.772 6.7845C136.133 6.69242 136.494 6.70696 136.86 6.70212C140.455 6.70212 144.051 6.69727 147.647 6.70212C147.998 6.70212 148.345 6.64396 148.696 6.70212C149.274 6.79419 149.534 7.02681 149.659 7.63257C149.765 8.16565 149.563 8.60664 149.086 8.86833C148.61 9.13002 148.08 9.15425 147.551 9.1591C144.59 9.16395 141.63 9.16395 138.67 9.1591C137.789 9.1591 137.688 9.25602 137.688 10.1332C137.688 12.1298 137.688 14.1312 137.688 16.1327C137.688 16.9614 137.818 17.0922 138.66 17.0922C141.375 17.0922 144.094 17.0922 146.809 17.0922C147.108 17.0922 147.401 17.1019 147.695 17.1746C148.436 17.3636 148.768 17.8046 148.73 18.5557C148.696 19.1082 148.253 19.5298 147.579 19.617C147.257 19.6607 146.934 19.6849 146.612 19.6849C143.936 19.6946 141.254 19.6897 138.578 19.6946C137.784 19.6946 137.688 19.7915 137.688 20.5814C137.688 22.6798 137.688 24.7733 137.688 26.8717C137.688 26.9638 137.688 27.0607 137.692 27.1576C137.741 27.8894 137.996 28.1462 138.722 28.1898C138.992 28.2092 139.266 28.1995 139.536 28.1995C142.376 28.1995 145.216 28.1995 148.051 28.2044C148.364 28.2044 148.672 28.1995 148.98 28.2625C149.616 28.3934 149.9 28.6551 149.991 29.2608C150.058 29.6873 149.736 30.2882 149.312 30.516C149.019 30.6759 148.701 30.7389 148.374 30.7389C144.441 30.7341 140.503 30.7389 136.571 30.7292C135.17 30.7244 134.934 30.4578 134.934 29.0428C134.934 25.665 134.934 22.2921 134.934 18.9144Z" fill="white"/>
<path d="M45.0362 29.6971C45.0699 29.0525 45.3491 28.3111 45.5657 27.5551C47.3082 21.4199 49.0603 15.2847 50.8125 9.14951C50.9713 8.6019 51.1494 8.05913 51.3708 7.5309C51.7367 6.66829 52.3961 6.21276 53.3107 6.15945C54.2349 6.10614 54.8895 6.56652 55.3228 7.3516C55.8474 8.29659 56.0641 9.36274 56.3914 10.3804C58.2879 16.3169 60.17 22.2583 62.0473 28.1996C62.2062 28.7036 62.3987 29.2028 62.4035 29.7455C62.4083 30.3513 62.0329 30.8068 61.4071 30.9619C60.7813 31.117 60.223 30.8941 59.963 30.3513C59.4672 29.3191 59.2169 28.1996 58.8704 27.1141C58.0039 24.4003 57.1664 21.6719 56.3144 18.9532C55.4239 16.0892 54.5285 13.2203 53.6332 10.361C53.5754 10.1769 53.5754 9.86189 53.3685 9.86673C53.1519 9.87158 53.1855 10.1866 53.1374 10.3707C51.3516 16.7918 49.5754 23.2178 47.7944 29.6389C47.727 29.8764 47.6403 30.1042 47.5537 30.3319C47.2793 31.0637 46.822 31.3399 46.1192 31.2091C45.4309 31.0782 45.0362 30.5839 45.0362 29.6971Z" fill="white"/>
<path d="M123.512 27.6472C123.743 27.3565 123.801 27.0754 123.878 26.804C125.649 20.7609 127.416 14.7178 129.187 8.67466C129.346 8.12705 129.495 7.57459 129.726 7.05121C130.049 6.33883 130.52 6.12076 131.266 6.33883C131.979 6.55206 132.297 7.05121 132.186 7.78782C131.984 9.0672 131.531 10.2787 131.161 11.5145C129.428 17.2814 127.676 23.0483 125.923 28.8152C125.832 29.1253 125.707 29.4306 125.586 29.7311C125.206 30.6809 124.537 31.214 123.488 31.2285C122.443 31.2431 121.842 30.6325 121.452 29.7602C120.956 28.6552 120.691 27.4679 120.34 26.3146C119.31 22.9223 118.299 19.53 117.293 16.1329C116.503 13.4675 115.637 10.8215 114.939 8.12705C114.717 7.27898 114.982 6.67321 115.637 6.37275C116.325 6.05776 117.018 6.3146 117.322 7.01244C117.774 8.04951 118.029 9.14958 118.352 10.2303C119.444 13.8939 120.523 17.5673 121.601 21.2407C122.174 23.1791 122.737 25.1224 123.31 27.0609C123.363 27.245 123.435 27.4195 123.512 27.6472Z" fill="white"/>
<path d="M109.446 18.929C109.446 15.4059 109.446 11.8828 109.446 8.35478C109.446 7.97678 109.456 7.59394 109.543 7.22078C109.697 6.54717 110.212 6.12556 110.842 6.16433C111.584 6.20794 112.07 6.68771 112.123 7.43401C112.132 7.59394 112.128 7.7587 112.128 7.92347C112.128 14.8486 112.128 21.7737 112.128 28.7037C112.128 29.1107 112.108 29.5178 112.041 29.92C111.897 30.8408 111.117 31.3496 110.265 31.0783C109.73 30.9086 109.461 30.5646 109.456 29.9927C109.442 28.8781 109.446 27.7635 109.446 26.6489C109.446 24.0756 109.446 21.5023 109.446 18.929Z" fill="white"/>
<path d="M23.6832 19.8692C23.4762 19.7577 23.5243 19.5348 23.481 19.3652C22.3498 14.6644 21.2235 9.96368 20.0971 5.26778C20.0923 5.24355 20.0682 5.22416 20.0393 5.1757C19.919 5.25324 19.9383 5.38893 19.9142 5.48586C18.7926 9.96368 17.6807 14.4415 16.5688 18.9193C16.5303 19.0647 16.4917 19.2052 16.4532 19.3506C15.9719 17.3686 15.4905 15.3865 15.0092 13.4044C14.9177 13.0264 14.8359 12.6387 14.7492 12.2607C14.7444 12.0136 14.7733 11.7761 14.8311 11.5387C15.5724 8.60191 16.2703 5.66032 17.0068 2.72356C17.0501 2.5491 17.0357 2.33587 17.2378 2.23411C17.7336 2.12264 18.2343 2.0548 18.7445 2.06449C19.1199 2.16141 19.4906 2.03541 19.8612 2.0548C20.2463 2.07418 20.6314 2.08388 21.0165 2.05964C21.6952 2.04995 22.3643 2.13234 23.0237 2.2971C23.1441 2.38434 23.173 2.52003 23.2018 2.65572C23.9239 5.83478 24.6459 9.01868 25.3728 12.1977C25.4209 12.411 25.4113 12.629 25.4161 12.8423C25.0502 14.3446 24.6892 15.8469 24.3186 17.3443C24.1116 18.1875 23.895 19.0308 23.6832 19.8692Z" fill="#E85253"/>
<path d="M9.39166 34.1313C10.5758 29.3336 11.7551 24.5311 12.9344 19.7286C12.9585 19.6365 12.9729 19.5444 12.9922 19.4475C13.0933 19.462 13.1174 19.5347 13.1366 19.6171C13.6517 21.919 14.1667 24.2209 14.6818 26.5229C14.6866 26.5519 14.6866 26.581 14.6866 26.6052C14.6962 26.8379 14.6625 27.0656 14.6047 27.2885C13.9308 29.9975 13.2618 32.7114 12.5831 35.4203C12.5349 35.6142 12.5205 35.8274 12.3279 35.9534C11.2738 35.4688 10.2966 34.863 9.39166 34.1313Z" fill="#E75253"/>
<path d="M27.0913 20.2617C27.9722 24.1483 28.8579 28.0397 29.7387 31.9312C29.9168 32.726 30.0997 33.5207 30.2779 34.3155C29.4259 35.0036 28.4872 35.5416 27.5004 36.0116C27.2983 35.9292 27.2983 35.7354 27.2598 35.5706C26.6388 33.0167 26.0419 30.4628 25.4113 27.9138C25.344 27.6472 25.2958 27.3855 25.3199 27.1093C25.6809 25.607 26.0419 24.0998 26.4078 22.5976C26.5762 21.9142 26.7495 21.2261 26.9228 20.5428C26.9469 20.4362 26.918 20.2859 27.0913 20.2617Z" fill="#E85253"/>
<path d="M21.0164 2.05971C20.872 2.20994 20.6843 2.14694 20.5255 2.13725C19.9334 2.10332 19.3317 2.24386 18.7444 2.06455C19.5002 1.97732 20.2607 1.95794 21.0164 2.05971Z" fill="#E94849"/>
</svg>
