<svg width="50" height="50" viewBox="0 0 50 50" fill="none" xmlns="http://www.w3.org/2000/svg">
<path fill-rule="evenodd" clip-rule="evenodd" d="M25.1033 41.9002L18.7033 33.4002C16.7033 30.9002 13.8033 27.4002 12.8033 24.4002C10.9033 18.4002 13.9033 12.2002 19.1033 9.40018C20.8033 8.50018 22.8033 7.90018 25.1033 7.90018C29.8033 7.90018 33.3033 10.4002 35.1033 12.8002C37.4033 15.6002 38.7033 19.8002 37.4033 24.4002C36.4033 27.5002 33.6033 30.7002 31.5033 33.4002C31.3033 33.7002 25.5033 41.6002 25.1033 41.9002ZM10.0033 19.7002C10.0033 22.3002 9.90331 23.1002 10.8033 25.6002C11.8033 28.6002 14.5033 31.8002 16.5033 34.4002L22.7033 42.7002C23.3033 43.5002 24.1033 45.0002 25.5033 44.6002C26.5033 44.3002 27.1033 43.3002 27.9033 42.2002C28.6033 41.3002 29.2033 40.4002 30.0033 39.5002C31.4033 37.6002 32.7033 35.8002 34.1033 33.9002C37.3033 29.7002 40.3033 26.6002 40.3033 20.7002C40.3033 13.2002 34.7033 6.70018 27.4033 5.70018C26.8033 5.60018 26.2033 5.60018 25.7033 5.50018C24.1033 5.30018 21.0033 6.00018 19.4033 6.60018C16.1033 8.10018 13.2033 10.5002 11.6033 13.8002C10.9033 15.2002 10.0033 17.6002 10.0033 19.7002Z" fill="#E85253"/>
<path fill-rule="evenodd" clip-rule="evenodd" d="M20.2033 21.1003C19.6033 18.1003 21.8033 15.8003 24.2033 15.4003C27.2033 15.0003 29.6033 17.0003 30.1033 19.3003C30.6033 22.3003 28.4033 24.5003 26.0033 24.9003C23.0033 25.4003 20.6033 23.4003 20.2033 21.1003ZM32.4033 21.1003C33.0033 16.8003 29.7033 13.5003 26.0033 13.1003C21.7033 12.6003 18.3033 15.6003 17.8033 19.3003C17.2033 23.6003 20.5033 26.9003 24.2033 27.3003C28.5033 27.8003 32.0033 24.8003 32.4033 21.1003Z" fill="#E85253"/>
</svg>
