<svg width="50" height="50" viewBox="0 0 50 50" fill="none" xmlns="http://www.w3.org/2000/svg">
<path fill-rule="evenodd" clip-rule="evenodd" d="M12.9 23.6999H8.69999V12.5999C8.69999 11.7999 9.59999 10.7999 10.5 10.7999H40.2C41.1 10.7999 42 11.7999 42 12.5999V37.6999H23.8C23.5 37.6999 22.8 36.7999 22.6 36.5999C22.2 36.0999 21.5 36.2999 20.6 36.2999H11.5C10.6 36.2999 10.1 36.2999 9.59999 35.8999C8.49999 35.1999 8.69999 34.2999 8.69999 33.0999H30.9C31.6 33.0999 32.1 32.7999 32.1 32.0999V18.5999C32.1 18.1999 31.7 17.7999 31.3 17.7999H16.5C15.9 17.7999 15.7 18.4999 15.4 18.9999L13.8 22.1999C13.7 22.3999 13.2 23.6999 12.9 23.6999ZM36.2 7.09985V8.99985H10.5C8.59999 8.99985 6.89999 10.8999 6.89999 12.4999V24.6999C6.89999 25.6999 8.69999 25.4999 9.79999 25.4999V29.3999C9.79999 30.0999 11 30.3999 11.5 29.7999C11.6 29.5999 11.6 29.3999 11.6 29.0999V25.4999C14.7 25.4999 14 25.8999 15.5 22.7999C15.8 22.1999 16.1 21.7999 16.3 21.1999C16.5 20.7999 17 19.9999 17.1 19.5999H30.3V31.2999H7.69999C7.29999 31.2999 6.89999 31.6999 6.89999 32.0999C6.89999 34.3999 6.59999 36.4999 9.09999 37.6999C10.3 38.2999 12.6 38.0999 14.3 38.0999H21.1C21.9 37.9999 21.6 38.0999 22.7 39.1999C22.9 39.4999 23.3 39.5999 23.8 39.5999H42.5C43.4 39.5999 43.9 39.2999 43.9 38.4999V12.9999C43.9 10.7999 42.2 8.99985 40.2 8.99985H38C38 7.09985 38.3 6.09985 37 6.09985C36.5 6.09985 36.2 6.59985 36.2 7.09985Z" fill="#E85253"/>
<path fill-rule="evenodd" clip-rule="evenodd" d="M6.90001 41.9997C6.90001 42.5997 7.10001 42.9997 7.70001 42.9997H43.1C44 42.9997 44.2 41.1997 42.8 41.1997H8.00001C7.50001 41.1997 6.90001 41.4997 6.90001 41.9997Z" fill="#E85253"/>
<path fill-rule="evenodd" clip-rule="evenodd" d="M35.9 30.0997C35.9 29.4997 36.4 28.9997 37.1 28.9997C38.1 28.9997 38.6 30.1997 37.9 30.8997C37.2 31.5997 35.9 31.1997 35.9 30.0997ZM34.1 30.0997C34.1 31.3997 35 32.3997 35.9 32.7997C36.5 33.0997 37 33.0997 37.7 32.9997C39.2 32.6997 40.6 30.8997 39.8 28.9997C38.6 25.9997 34.1 26.8997 34.1 30.0997Z" fill="#E85253"/>
<path fill-rule="evenodd" clip-rule="evenodd" d="M35.9 20.6998C35.9 20.0998 36.4 19.5998 37.1 19.5998C38.1 19.5998 38.6 20.8998 37.9 21.5998C37.2 22.1998 35.9 21.7998 35.9 20.6998ZM34.1 20.5998C34.1 22.6998 35.8 23.9998 37.7 23.5998C38.7 23.3998 39.7 22.3998 40 21.3998C40.4 19.5998 39.1 17.7998 36.9 17.7998C35.5 17.7998 34.1 19.1998 34.1 20.5998Z" fill="#E85253"/>
</svg>
