<svg width="50" height="50" viewBox="0 0 50 50" fill="none" xmlns="http://www.w3.org/2000/svg">
<path d="M20.625 4.00021C14.5312 4.00021 9.6875 8.84396 9.6875 14.9377C9.6875 18.6877 11.5625 22.1252 14.5313 24.0002C8.90625 26.1877 5 31.8127 5 38.219H8.125C8.125 31.344 13.75 25.719 20.625 25.719C21.5625 25.719 22.3438 25.8752 23.125 26.0315C23.1969 25.933 23.2922 25.8486 23.3688 25.7518C21.5947 27.9567 20.6267 30.7014 20.625 33.5315C20.625 40.4065 26.25 46.0315 33.125 46.0315C40 46.0315 45.625 40.4065 45.625 33.5315C45.625 26.6565 40 21.0315 33.125 21.0315C31.7743 21.0341 30.4331 21.2579 29.1547 21.694C30.4459 20.0928 31.2563 18.158 31.4918 16.1146C31.7272 14.0711 31.3781 12.0028 30.4848 10.1499C29.5916 8.29699 28.1909 6.73555 26.4456 5.64697C24.7003 4.55839 22.6819 3.98736 20.625 4.00021ZM20.625 6.96896C25 6.96896 28.4375 10.4065 28.4375 14.7815C28.4375 19.1565 25 22.594 20.625 22.594C16.25 22.594 12.8125 19.1565 12.8125 14.7815C12.8125 10.4065 16.25 6.96896 20.625 6.96896ZM25.7422 23.4783L25.6078 23.5768C25.6524 23.5436 25.6972 23.5108 25.7422 23.4783ZM33.125 24.1565C38.2812 24.1565 42.5 28.3752 42.5 33.5315C42.5 38.6877 38.2812 42.9065 33.125 42.9065C27.9688 42.9065 23.75 38.6877 23.75 33.5315C23.75 28.3752 27.9688 24.1565 33.125 24.1565ZM31.5625 27.2815V34.469L28.9062 37.1252L31.0938 39.3127L34.6875 35.719V27.2815H31.5625Z" fill="#E85253"/>
</svg>
