<svg width="40" height="40" viewBox="0 0 40 40" fill="none" xmlns="http://www.w3.org/2000/svg">
<path d="M27.986 23.5755C27.5599 23.3598 25.4849 22.3473 25.0971 22.2028C24.7092 22.0646 24.4277 21.9924 24.1451 22.4185C23.8688 22.8339 23.0549 23.7848 22.8063 24.0621C22.5577 24.3395 22.3133 24.3607 21.8936 24.1726C21.4676 23.957 20.1065 23.5139 18.4904 22.0646C17.2282 20.9416 16.3877 19.5582 16.1381 19.1321C15.8894 18.7114 16.1104 18.4734 16.3208 18.263C16.5142 18.0696 16.7469 17.7764 16.9626 17.5214C17.1676 17.2664 17.2335 17.0953 17.3833 16.8191C17.5214 16.5205 17.4502 16.2878 17.3451 16.0775C17.2399 15.8671 16.3931 13.7814 16.0392 12.9505C15.7014 12.126 15.3476 12.2312 15.0872 12.2312C14.8439 12.2089 14.5613 12.2089 14.2797 12.2089C13.9982 12.2089 13.5381 12.3141 13.1503 12.7178C12.7625 13.1439 11.6671 14.1618 11.6671 16.2209C11.6671 18.2853 13.1832 20.2828 13.3936 20.5814C13.6093 20.8576 16.3761 25.1076 20.6207 26.9341C21.6333 27.3601 22.4196 27.6151 23.0337 27.8255C24.0462 28.1464 24.9706 28.1018 25.7006 27.9966C26.5081 27.8638 28.2017 26.9723 28.5566 25.9768C28.9167 24.9748 28.9167 24.145 28.8116 23.957C28.7064 23.7636 28.4301 23.6584 28.0041 23.4703L27.986 23.5755ZM20.2882 34.0125H20.2659C17.7531 34.0125 15.2689 33.3314 13.0993 32.0585L12.5904 31.7546L7.27787 33.138L8.70587 27.969L8.36268 27.4377C6.95961 25.2068 6.21526 22.625 6.21537 19.9896C6.21537 12.2758 12.5298 5.9837 20.2988 5.9837C24.0622 5.9837 27.5929 7.44995 30.2491 10.1062C31.5595 11.401 32.5989 12.9437 33.3067 14.6444C34.0145 16.3451 34.3765 18.1698 34.3716 20.0119C34.361 27.7203 28.0519 34.0125 20.2935 34.0125H20.2882ZM32.2689 8.08639C29.0368 4.96476 24.7868 3.19995 20.2659 3.19995C10.9414 3.19995 3.34875 10.7596 3.34343 20.0501C3.34343 23.0166 4.118 25.9109 5.60125 28.4726L3.2 37.2L12.176 34.8593C14.6626 36.1999 17.442 36.9051 20.2669 36.912H20.2722C29.6021 36.912 37.1947 29.3523 37.2 20.0555C37.2 15.5568 35.4458 11.3228 32.2477 8.14058L32.2689 8.08639Z" fill="#44C6CA"/>
</svg>
