<svg width="40" height="40" viewBox="0 0 40 40" fill="none" xmlns="http://www.w3.org/2000/svg">
<path d="M27.986 23.5756C27.5599 23.3599 25.4849 22.3473 25.0971 22.2028C24.7092 22.0647 24.4277 21.9924 24.1451 22.4185C23.8688 22.8339 23.0549 23.7849 22.8063 24.0622C22.5577 24.3395 22.3133 24.3608 21.8936 24.1727C21.4676 23.957 20.1065 23.5139 18.4904 22.0647C17.2282 20.9416 16.3877 19.5583 16.1381 19.1322C15.8894 18.7114 16.1104 18.4734 16.3208 18.2631C16.5142 18.0697 16.7469 17.7765 16.9626 17.5215C17.1676 17.2664 17.2335 17.0954 17.3833 16.8191C17.5214 16.5206 17.4502 16.2879 17.3451 16.0775C17.2399 15.8671 16.3931 13.7814 16.0392 12.9506C15.7014 12.1261 15.3476 12.2313 15.0872 12.2313C14.8439 12.209 14.5613 12.209 14.2797 12.209C13.9982 12.209 13.5381 12.3141 13.1503 12.7179C12.7625 13.1439 11.6671 14.1618 11.6671 16.221C11.6671 18.2854 13.1832 20.2829 13.3936 20.5814C13.6093 20.8577 16.3761 25.1077 20.6207 26.9341C21.6333 27.3602 22.4196 27.6152 23.0337 27.8256C24.0462 28.1465 24.9706 28.1018 25.7006 27.9966C26.5081 27.8638 28.2017 26.9724 28.5566 25.9768C28.9167 24.9749 28.9167 24.1451 28.8116 23.957C28.7064 23.7636 28.4301 23.6584 28.0041 23.4704L27.986 23.5756ZM20.2882 34.0125H20.2659C17.7531 34.0125 15.2689 33.3314 13.0993 32.0586L12.5904 31.7547L7.27787 33.1381L8.70587 27.969L8.36268 27.4378C6.95961 25.2069 6.21526 22.625 6.21537 19.9896C6.21537 12.2759 12.5298 5.98376 20.2988 5.98376C24.0622 5.98376 27.5929 7.45001 30.2491 10.1063C31.5595 11.401 32.5989 12.9438 33.3067 14.6445C34.0145 16.3452 34.3765 18.1698 34.3716 20.0119C34.361 27.7204 28.0519 34.0125 20.2935 34.0125H20.2882ZM32.2689 8.08645C29.0368 4.96482 24.7868 3.20001 20.2659 3.20001C10.9414 3.20001 3.34875 10.7597 3.34343 20.0502C3.34343 23.0167 4.118 25.9109 5.60125 28.4726L3.2 37.2L12.176 34.8593C14.6626 36.2 17.442 36.9051 20.2669 36.9121H20.2722C29.6021 36.9121 37.1947 29.3524 37.2 20.0555C37.2 15.5569 35.4458 11.3228 32.2477 8.14064L32.2689 8.08645Z" fill="#C6AB98"/>
</svg>
